<?xml version="1.0" encoding="UTF-8" standalone="no"?>
<!DOCTYPE svg PUBLIC "-//W3C//DTD SVG 1.1//EN"
 "http://www.w3.org/Graphics/SVG/1.1/DTD/svg11.dtd">
<!-- Generated by graphviz version 12.1.2 (20240928.0832)
 -->
<!-- Pages: 1 -->
<svg width="202pt" height="325pt"
 viewBox="0.00 0.00 201.70 324.65" xmlns="http://www.w3.org/2000/svg" xmlns:xlink="http://www.w3.org/1999/xlink">
<g id="graph0" class="graph" transform="scale(1 1) rotate(0) translate(4 320.65)">
<polygon fill="white" stroke="none" points="-4,4 -4,-320.65 197.7,-320.65 197.7,4 -4,4"/>
<!-- &#45;1 -->
<g id="node1" class="node">
<title>&#45;1</title>
<polygon fill="lightgray" stroke="black" points="181.17,-172.82 157.67,-172.82 157.67,-154.32 181.17,-154.32 181.17,-172.82"/>
<text text-anchor="middle" x="169.42" y="-160.27" font-family="Times,serif" font-size="9.00">&#45;1</text>
</g>
<!-- 353 -->
<g id="node4" class="node">
<title>353</title>
<ellipse fill="white" stroke="black" cx="91.42" cy="-85.85" rx="20.86" ry="20.86"/>
<text text-anchor="middle" x="91.42" y="-82.55" font-family="Times,serif" font-size="9.00">353</text>
</g>
<!-- &#45;1&#45;&gt;353 -->
<g id="edge13" class="edge">
<title>&#45;1&#45;&gt;353</title>
<path fill="none" stroke="green" stroke-width="0.37" d="M160.47,-153.88C149.05,-142.8 128.92,-123.25 113.32,-108.12"/>
<polygon fill="green" stroke="green" stroke-width="0.37" points="116.11,-105.94 106.5,-101.49 111.23,-110.97 116.11,-105.94"/>
</g>
<!-- 125 -->
<g id="node7" class="node">
<title>125</title>
<ellipse fill="white" stroke="black" cx="169.42" cy="-85.85" rx="20.86" ry="20.86"/>
<text text-anchor="middle" x="169.42" y="-82.55" font-family="Times,serif" font-size="9.00">125</text>
</g>
<!-- &#45;1&#45;&gt;125 -->
<g id="edge1" class="edge">
<title>&#45;1&#45;&gt;125</title>
<path fill="none" stroke="green" stroke-width="0.49" d="M169.42,-153.88C169.42,-145.02 169.42,-130.75 169.42,-117.65"/>
<polygon fill="green" stroke="green" stroke-width="0.49" points="172.92,-117.81 169.42,-107.81 165.92,-117.81 172.92,-117.81"/>
</g>
<!-- &#45;2 -->
<g id="node2" class="node">
<title>&#45;2</title>
<polygon fill="lightgray" stroke="black" points="116.17,-316.65 92.67,-316.65 92.67,-298.15 116.17,-298.15 116.17,-316.65"/>
<text text-anchor="middle" x="104.42" y="-304.1" font-family="Times,serif" font-size="9.00">&#45;2</text>
</g>
<!-- 0 -->
<g id="node3" class="node">
<title>0</title>
<ellipse fill="lightblue" stroke="black" cx="42.42" cy="-14.5" rx="14.5" ry="14.5"/>
<text text-anchor="middle" x="42.42" y="-11.2" font-family="Times,serif" font-size="9.00">0</text>
</g>
<!-- &#45;2&#45;&gt;0 -->
<g id="edge8" class="edge">
<title>&#45;2&#45;&gt;0</title>
<path fill="none" stroke="red" stroke-width="0.1" stroke-dasharray="1,5" d="M92.39,-302C76.39,-295.56 48.16,-282.15 31.42,-262.15 7.64,-233.76 8.2,-220.83 1.42,-184.43 -2.77,-161.96 3.89,-69.21 5.42,-64.99 9.71,-53.09 17.9,-41.66 25.48,-32.78"/>
<polygon fill="red" stroke="red" stroke-width="0.1" points="27.93,-35.29 32.04,-25.52 22.74,-30.59 27.93,-35.29"/>
</g>
<!-- &#45;2&#45;&gt;353 -->
<g id="edge9" class="edge">
<title>&#45;2&#45;&gt;353</title>
<path fill="none" stroke="red" stroke-width="0.33" d="M103.91,-297.79C102.14,-268.03 96.25,-168.49 93.23,-117.51"/>
<polygon fill="red" stroke="red" stroke-width="0.33" points="96.73,-117.39 92.64,-107.61 89.74,-117.8 96.73,-117.39"/>
</g>
<!-- 139 -->
<g id="node5" class="node">
<title>139</title>
<ellipse fill="white" stroke="black" cx="61.42" cy="-241.29" rx="20.86" ry="20.86"/>
<text text-anchor="middle" x="61.42" y="-237.99" font-family="Times,serif" font-size="9.00">139</text>
</g>
<!-- &#45;2&#45;&gt;139 -->
<g id="edge4" class="edge">
<title>&#45;2&#45;&gt;139</title>
<path fill="none" stroke="green" stroke-width="0.45" d="M98.62,-297.75C93.46,-290.06 85.65,-278.42 78.52,-267.79"/>
<polygon fill="green" stroke="green" stroke-width="0.45" points="81.61,-266.12 73.14,-259.76 75.8,-270.02 81.61,-266.12"/>
</g>
<!-- &#45;2&#45;&gt;125 -->
<g id="edge3" class="edge">
<title>&#45;2&#45;&gt;125</title>
<path fill="none" stroke="red" stroke-width="0.9" d="M113.56,-297.7C132.38,-279.08 174.99,-233.08 190.42,-184.43 197.67,-161.54 190.92,-134.84 183.2,-115.16"/>
<polygon fill="red" stroke="red" stroke-width="0.9" points="186.44,-113.83 179.3,-106 179.99,-116.57 186.44,-113.83"/>
</g>
<!-- 353&#45;&gt;0 -->
<g id="edge7" class="edge">
<title>353&#45;&gt;0</title>
<path fill="none" stroke="red" stroke-width="0.78" d="M79.8,-68.41C72.87,-58.6 64.01,-46.06 56.66,-35.65"/>
<polygon fill="red" stroke="red" stroke-width="0.78" points="59.74,-33.95 51.11,-27.8 54.02,-37.98 59.74,-33.95"/>
</g>
<!-- 139&#45;&gt;0 -->
<g id="edge5" class="edge">
<title>139&#45;&gt;0</title>
<path fill="none" stroke="green" stroke-width="0.25" stroke-dasharray="1,5" d="M45.24,-227.55C33.65,-217.32 18.96,-201.82 12.42,-184.43 -6.7,-133.65 16.58,-69.6 31.6,-36.88"/>
<polygon fill="green" stroke="green" stroke-width="0.25" points="34.63,-38.65 35.77,-28.12 28.31,-35.64 34.63,-38.65"/>
</g>
<!-- 139&#45;&gt;353 -->
<g id="edge6" class="edge">
<title>139&#45;&gt;353</title>
<path fill="none" stroke="green" stroke-width="0.12" d="M65.35,-220.38C67.45,-209.72 70.08,-196.36 72.42,-184.43 76.89,-161.6 81.91,-135.76 85.68,-116.41"/>
<polygon fill="green" stroke="green" stroke-width="0.12" points="89.06,-117.33 87.54,-106.84 82.19,-115.99 89.06,-117.33"/>
</g>
<!-- 955 -->
<g id="node6" class="node">
<title>955</title>
<ellipse fill="white" stroke="black" cx="42.42" cy="-163.57" rx="20.86" ry="20.86"/>
<text text-anchor="middle" x="42.42" y="-160.27" font-family="Times,serif" font-size="9.00">955</text>
</g>
<!-- 139&#45;&gt;955 -->
<g id="edge10" class="edge">
<title>139&#45;&gt;955</title>
<path fill="none" stroke="green" stroke-width="0.68" d="M56.52,-220.79C54.54,-212.9 52.21,-203.61 50.02,-194.88"/>
<polygon fill="green" stroke="green" stroke-width="0.68" points="53.44,-194.11 47.61,-185.26 46.65,-195.82 53.44,-194.11"/>
</g>
<!-- 955&#45;&gt;0 -->
<g id="edge12" class="edge">
<title>955&#45;&gt;0</title>
<path fill="none" stroke="green" stroke-width="0.2" d="M42.42,-142.43C42.42,-115.5 42.42,-67.85 42.42,-39.22"/>
<polygon fill="green" stroke="green" stroke-width="0.2" points="45.92,-39.55 42.42,-29.55 38.92,-39.55 45.92,-39.55"/>
</g>
<!-- 955&#45;&gt;353 -->
<g id="edge11" class="edge">
<title>955&#45;&gt;353</title>
<path fill="none" stroke="green" stroke-width="0.29" d="M53.53,-145.39C59.8,-135.71 67.75,-123.42 74.74,-112.61"/>
<polygon fill="green" stroke="green" stroke-width="0.29" points="77.61,-114.63 80.1,-104.33 71.73,-110.83 77.61,-114.63"/>
</g>
<!-- 125&#45;&gt;0 -->
<g id="edge2" class="edge">
<title>125&#45;&gt;0</title>
<path fill="none" stroke="green" stroke-width="1.1" d="M151.22,-74.91C128.5,-62.51 89.63,-41.28 65.02,-27.84"/>
<polygon fill="green" stroke="green" stroke-width="1.1" points="66.75,-24.8 56.3,-23.08 63.4,-30.94 66.75,-24.8"/>
</g>
</g>
</svg>
